<?xml version="1.0" standalone="no"?>
<!DOCTYPE svg PUBLIC "-//W3C//DTD SVG 20010904//EN"
 "http://www.w3.org/TR/2001/REC-SVG-20010904/DTD/svg10.dtd">
<svg version="1.0" xmlns="http://www.w3.org/2000/svg"
 width="1024.000000pt" height="1024.000000pt" viewBox="0 0 1024.000000 1024.000000"
 preserveAspectRatio="xMidYMid meet">
<metadata>
Created by potrace 1.16, written by Peter Selinger 2001-2019
</metadata>
<g transform="translate(0.000000,1024.000000) scale(0.100000,-0.100000)"
fill="#000000" stroke="none">
<path d="M4819 9308 c-401 -568 -790 -1117 -942 -1333 -66 -93 -144 -203 -172
-243 l-52 -72 79 -253 c44 -138 115 -364 158 -502 43 -137 98 -313 122 -390
l44 -139 23 39 c13 22 74 128 136 235 171 298 555 964 668 1160 55 96 136 236
179 310 l78 134 0 748 c0 412 -2 748 -4 748 -2 0 -145 -199 -317 -442z"/>
<path d="M5200 9001 l0 -752 316 -547 c174 -301 340 -587 369 -637 77 -133
306 -528 356 -617 24 -43 47 -78 51 -78 3 0 15 28 26 63 44 136 106 329 222
697 67 212 132 418 145 457 l23 73 -106 147 c-58 82 -135 189 -171 240 -36 50
-122 169 -190 265 -69 95 -183 254 -255 353 -321 445 -461 639 -626 870 -79
110 -147 204 -151 210 -5 5 -9 -329 -9 -744z"/>
<path d="M2900 9169 c-448 -27 -871 -196 -1152 -459 -362 -338 -519 -858 -432
-1425 18 -120 72 -338 112 -455 225 -654 734 -1340 1432 -1928 69 -58 129
-109 134 -113 5 -4 -5 -64 -22 -136 -17 -70 -45 -189 -62 -263 -17 -74 -33
-141 -35 -147 -2 -7 -3 -13 -1 -13 4 0 81 130 186 313 40 70 75 127 79 127 3
0 17 -9 30 -19 l24 -18 -138 -239 c-76 -131 -149 -256 -162 -276 -13 -21 -23
-40 -23 -43 0 -3 264 -5 588 -5 l587 0 50 -33 50 -32 -619 -5 -619 -5 94 -56
c270 -161 1238 -738 1609 -959 234 -139 442 -263 463 -276 20 -14 37 -20 37
-15 0 6 -29 101 -64 213 -232 731 -243 768 -232 768 4 0 22 -6 40 -14 24 -10
37 -24 44 -48 11 -33 130 -427 218 -720 26 -87 51 -158 55 -158 5 0 9 6 9 13
0 7 30 105 66 218 36 112 84 262 106 334 22 71 42 133 44 137 7 10 54 -13 54
-26 0 -6 -27 -96 -61 -201 -142 -445 -161 -507 -156 -511 3 -3 208 114 455
260 l450 266 139 -29 c341 -73 607 -103 918 -104 249 -1 381 11 569 50 565
117 907 423 1012 903 15 68 19 126 18 285 0 177 -4 215 -28 330 -33 158 -90
350 -153 507 -25 65 -48 117 -49 115 -1 -1 8 -44 21 -94 103 -397 2 -723 -293
-942 -716 -530 -2046 -211 -3517 844 -501 360 -1035 828 -1410 1235 -472 514
-768 989 -881 1420 -31 117 -44 356 -25 466 37 209 172 407 366 534 99 64 255
141 355 174 276 91 601 99 938 23 56 -13 99 -20 94 -15 -5 5 -62 29 -128 54
-396 150 -803 217 -1184 193z"/>
<path d="M5074 8018 c-48 -84 -173 -301 -278 -483 -260 -453 -419 -728 -579
-1006 l-136 -235 36 -115 c76 -247 105 -336 111 -345 46 -62 572 -482 862
-686 235 -165 651 -428 677 -428 4 0 41 105 81 233 107 339 263 829 348 1091
l74 229 -87 151 c-48 83 -276 477 -507 876 -231 399 -438 758 -460 797 -23 40
-44 73 -47 73 -4 0 -46 -69 -95 -152z"/>
<path d="M3605 7508 c-15 -73 -89 -392 -122 -528 -55 -225 -47 -323 38 -446
30 -45 376 -404 388 -404 3 0 27 37 54 81 l47 81 -71 226 c-75 239 -240 762
-291 922 -16 52 -31 96 -33 98 -2 2 -6 -12 -10 -30z"/>
<path d="M6707 7437 c-16 -50 -55 -175 -87 -277 -33 -102 -87 -273 -120 -380
-34 -107 -84 -264 -111 -349 l-49 -155 39 -65 c20 -36 170 -293 331 -571 161
-278 326 -561 365 -630 322 -554 415 -711 410 -685 -4 17 -15 64 -26 105 -10
41 -45 194 -78 340 -33 146 -87 382 -120 525 -34 143 -67 289 -76 325 -8 36
-48 211 -89 390 -139 600 -216 933 -283 1228 -37 160 -69 292 -72 292 -3 0
-19 -42 -34 -93z"/>
<path d="M8207 6573 c-78 -303 -78 -304 -101 -312 -174 -61 -406 -147 -406
-151 0 -3 85 -59 189 -125 l188 -120 6 -80 c4 -44 7 -128 7 -186 0 -58 3 -127
6 -152 l7 -47 76 63 c42 35 121 100 177 145 l100 82 210 -60 c115 -33 214 -59
221 -58 7 2 0 32 -22 88 -18 47 -54 137 -79 202 -25 64 -46 121 -46 128 0 11
112 182 218 333 18 27 32 51 29 53 -3 4 -256 -10 -388 -21 l-65 -6 -135 173
c-74 94 -139 178 -144 185 -8 10 -21 -26 -48 -134z"/>
<path d="M4005 6135 l-38 -69 79 -72 c43 -40 80 -71 81 -70 2 2 -58 205 -79
267 -2 7 -22 -18 -43 -56z"/>
<path d="M6301 6168 c-5 -13 -37 -112 -71 -219 -201 -630 -269 -846 -331
-1039 -38 -118 -69 -218 -69 -222 0 -10 225 -127 390 -203 195 -90 354 -152
540 -213 268 -88 333 -101 540 -108 183 -7 183 -7 178 14 -3 11 -117 213 -254
449 -136 235 -304 525 -372 643 -69 118 -174 301 -235 405 -61 105 -151 260
-200 345 -49 85 -93 159 -98 164 -5 5 -12 -1 -18 -16z"/>
<path d="M2682 1929 c-282 -47 -482 -278 -482 -557 0 -250 164 -463 415 -538
96 -29 267 -25 372 10 184 60 321 202 368 381 19 76 19 224 0 300 -72 275
-370 454 -673 404z m235 -289 c58 -25 126 -92 149 -146 61 -145 -2 -311 -144
-381 -75 -37 -191 -40 -263 -6 -60 27 -125 92 -152 152 -26 58 -27 167 -2 226
69 159 248 226 412 155z"/>
<path d="M3755 1907 c-160 -53 -245 -158 -245 -302 1 -143 64 -216 275 -319
146 -71 185 -101 185 -140 0 -33 -34 -55 -97 -63 -68 -8 -148 17 -202 63 l-43
37 -80 -80 c-90 -91 -92 -97 -31 -158 120 -120 370 -155 539 -76 130 61 198
159 198 286 0 161 -99 261 -362 365 -98 39 -124 66 -99 104 21 31 78 50 125
41 43 -8 103 -37 121 -59 11 -14 23 -6 92 57 43 39 79 79 79 88 0 30 -70 98
-138 131 -60 30 -75 33 -172 35 -67 2 -120 -2 -145 -10z"/>
<path d="M7577 1909 c-96 -23 -183 -93 -228 -184 -29 -59 -31 -72 -27 -132 10
-137 70 -204 275 -304 140 -69 198 -113 191 -147 -2 -8 -16 -24 -31 -36 -61
-45 -208 -20 -280 48 l-28 26 -85 -77 c-46 -43 -84 -83 -84 -89 0 -22 79 -100
127 -127 157 -85 394 -78 525 15 89 64 129 131 136 229 12 166 -77 268 -325
374 -126 53 -149 71 -139 110 7 27 55 55 94 55 39 0 120 -31 147 -56 l28 -26
80 80 81 81 -28 40 c-35 50 -111 100 -179 118 -57 14 -192 16 -250 2z"/>
<path d="M1390 1375 l0 -535 345 0 345 0 0 130 0 130 -205 0 -205 0 0 80 0 80
170 0 170 0 0 120 0 120 -170 0 -170 0 0 75 0 75 205 0 205 0 0 130 0 130
-345 0 -345 0 0 -535z"/>
<path d="M4256 1888 c3 -13 15 -39 24 -58 10 -20 48 -101 83 -180 36 -80 102
-226 147 -325 45 -99 104 -228 131 -288 26 -59 58 -130 71 -157 l23 -50 66 0
c64 0 68 1 77 28 6 15 56 126 112 247 56 121 141 308 190 415 48 107 106 234
129 283 23 48 41 92 41 97 0 7 -55 10 -152 8 l-152 -3 -120 -282 c-67 -156
-124 -283 -128 -283 -3 0 -60 127 -126 283 l-121 282 -151 3 -152 3 8 -23z"/>
<path d="M5470 1375 l0 -535 345 0 345 0 0 130 0 130 -205 0 -205 0 0 80 0 80
170 0 171 0 -3 118 -3 117 -167 3 -168 2 0 75 0 75 205 0 205 0 0 130 0 130
-345 0 -345 0 0 -535z"/>
<path d="M6328 1904 c-3 -3 -4 -235 -1 -517 2 -282 4 -520 4 -529 -1 -16 12
-18 139 -18 l140 0 2 228 3 227 64 -105 c35 -58 98 -160 140 -227 l76 -123
163 0 c89 0 162 2 162 5 0 3 -63 99 -141 213 -124 183 -138 208 -123 217 39
22 105 90 128 131 113 203 -17 448 -263 494 -55 10 -483 14 -493 4z m461 -268
c31 -17 51 -54 51 -97 0 -22 -10 -41 -34 -65 -33 -33 -36 -34 -115 -34 l-81 0
0 105 0 105 75 0 c46 0 87 -6 104 -14z"/>
<path d="M8207 1903 c-4 -3 -7 -244 -7 -535 l0 -528 350 0 350 0 0 130 0 130
-207 2 -208 3 0 75 0 75 170 5 170 5 0 115 0 115 -173 3 -173 2 3 73 3 72 208
3 207 2 0 130 0 130 -343 0 c-189 0 -347 -3 -350 -7z"/>
</g>
</svg>
